<?xml version="1.0" encoding="UTF-8" standalone="no"?>
<svg
   xmlns:dc="http://purl.org/dc/elements/1.1/"
   xmlns:cc="http://creativecommons.org/ns#"
   xmlns:rdf="http://www.w3.org/1999/02/22-rdf-syntax-ns#"
   xmlns:svg="http://www.w3.org/2000/svg"
   xmlns="http://www.w3.org/2000/svg"
   xmlns:sodipodi="http://sodipodi.sourceforge.net/DTD/sodipodi-0.dtd"
   xmlns:inkscape="http://www.inkscape.org/namespaces/inkscape"
   inkscape:version="1.0 (4035a4fb49, 2020-05-01)"
   sodipodi:docname="pse-icon-dataset-notext.svg"
   id="svg16"
   viewBox="0 0 15.875143 15.875143"
   version="1.1"
   height="60"
   width="60">
  <defs
     id="defs20" />
  <sodipodi:namedview
     inkscape:current-layer="svg16"
     inkscape:window-maximized="1"
     inkscape:window-y="-8"
     inkscape:window-x="-8"
     inkscape:cy="31.749121"
     inkscape:cx="23.030627"
     inkscape:zoom="11.821839"
     showgrid="false"
     id="namedview18"
     inkscape:window-height="1017"
     inkscape:window-width="1920"
     inkscape:pageshadow="2"
     inkscape:pageopacity="0"
     guidetolerance="10"
     gridtolerance="10"
     objecttolerance="10"
     borderopacity="1"
     bordercolor="#666666"
     pagecolor="#ffffff" />
  <metadata
     id="metadata2">
    <rdf:RDF>
      <cc:Work
         rdf:about="">
        <dc:format>image/svg+xml</dc:format>
        <dc:type
           rdf:resource="http://purl.org/dc/dcmitype/StillImage" />
        <dc:title></dc:title>
      </cc:Work>
    </rdf:RDF>
  </metadata>
  <g
     transform="translate(21.760557,-6.1710791)"
     id="g12">
    <path
       d="m -14.997,9.0737 c -1.7103,0.015539 -3.0796,0.67556 -3.0798,1.4845 -8.5e-5,0.82014 1.406,1.485 3.1404,1.485 1.7344,6.1e-5 3.1405,-0.6648 3.1404,-1.485 -5e-4,-0.81996 -1.4064,-1.4845 -3.1404,-1.4845 -0.02023,-9.17e-5 -0.04034,-9.17e-5 -0.06057,0 z m -3.0793,2.6065 v 4.0489 c 2.5e-4,0.90266 1.6362,1.4845 2.8996,1.4845 v -2.6153 c 0,-0.56027 0.46328,-1.0268 1.0248,-1.0268 h 2.3559 l -5.03e-4,-1.8914 c -0.19762,0.21232 -0.46061,0.39452 -0.7625,0.53732 -0.64836,0.30668 -1.5098,0.47133 -2.3774,0.47138 -0.86751,-4.1e-5 -1.7295,-0.1647 -2.3779,-0.47138 -0.30176,-0.14274 -0.56441,-0.32512 -0.76201,-0.53732 z"
       fill="#007dad"
       stroke-linecap="round"
       stroke-linejoin="round"
       stroke-width="0.26458"
       id="path8" />
    <path
       d="m -13.68,14.3 c -0.42577,0 -0.76843,0.34318 -0.76843,0.76894 v 3.3063 c 0,0.42576 0.34266,0.76843 0.76843,0.76843 h 3.3424 c 0.42577,0 0.76843,-0.34267 0.76843,-0.76843 v -3.3063 C -9.56917,14.64317 -9.91183,14.3 -10.3376,14.3 Z m -5.29e-4,0.72864 h 1.3074 v 0.64337 h -1.3462 v -0.60255 c 0,-0.03615 0.0048,-0.04082 0.03876,-0.04082 z m 2.036,0 h 1.3059 c 0.03392,0 0.04082,0.0069 0.04082,0.04082 v 0.60255 h -1.3467 z m -2.0748,1.3715 h 1.3462 v 0.64337 h -1.3462 z m 2.0748,0 h 1.3467 v 0.64337 h -1.3467 z m -2.0748,1.3715 h 1.3462 v 0.64337 h -1.3074 c -0.03386,0 -0.03876,-0.0047 -0.03876,-0.04082 z m 2.0748,0 h 1.3467 v 0.60255 c 0,0.03392 -0.0069,0.04082 -0.04082,0.04082 h -1.3059 z"
       color="#000000"
       color-rendering="auto"
       dominant-baseline="auto"
       fill="#8ac9e1"
       image-rendering="auto"
       shape-rendering="auto"
       solid-color="#000000"
       stop-color="#000000"
       style="font-variant-ligatures:normal;font-variant-position:normal;font-variant-caps:normal;font-variant-numeric:normal;font-variant-alternates:normal;font-variant-east-asian:normal;font-feature-settings:normal;font-variation-settings:normal;text-indent:0;text-decoration:none;text-decoration-line:none;text-decoration-style:solid;text-decoration-color:#000000;text-transform:none;text-orientation:mixed;white-space:normal;shape-padding:0;shape-margin:0;inline-size:0;isolation:auto;mix-blend-mode:normal"
       id="path10" />
  </g>
</svg>
