<?xml version="1.0" encoding="UTF-8" standalone="no"?>
<svg
   xmlns:dc="http://purl.org/dc/elements/1.1/"
   xmlns:cc="http://creativecommons.org/ns#"
   xmlns:rdf="http://www.w3.org/1999/02/22-rdf-syntax-ns#"
   xmlns:svg="http://www.w3.org/2000/svg"
   xmlns="http://www.w3.org/2000/svg"
   xmlns:sodipodi="http://sodipodi.sourceforge.net/DTD/sodipodi-0.dtd"
   xmlns:inkscape="http://www.inkscape.org/namespaces/inkscape"
   inkscape:version="1.0 (4035a4fb49, 2020-05-01)"
   sodipodi:docname="pse-icon-encoding-notext.svg"
   id="svg14"
   viewBox="0 0 15.875143 15.875143"
   version="1.1"
   height="60"
   width="60">
  <defs
     id="defs18" />
  <sodipodi:namedview
     inkscape:current-layer="svg14"
     inkscape:window-maximized="1"
     inkscape:window-y="-8"
     inkscape:window-x="-8"
     inkscape:cy="28.232863"
     inkscape:cx="23.030627"
     inkscape:zoom="11.821839"
     showgrid="false"
     id="namedview16"
     inkscape:window-height="1017"
     inkscape:window-width="1920"
     inkscape:pageshadow="2"
     inkscape:pageopacity="0"
     guidetolerance="10"
     gridtolerance="10"
     objecttolerance="10"
     borderopacity="1"
     bordercolor="#666666"
     pagecolor="#ffffff" />
  <metadata
     id="metadata2">
    <rdf:RDF>
      <cc:Work
         rdf:about="">
        <dc:format>image/svg+xml</dc:format>
        <dc:type
           rdf:resource="http://purl.org/dc/dcmitype/StillImage" />
        <dc:title></dc:title>
      </cc:Work>
    </rdf:RDF>
  </metadata>
  <g
     transform="translate(-1.3228036,0.96305704)"
     id="g26">
    <path
       id="path4"
       fill="#007dad"
       d="M 8.6139,5.9735 C 8.51229,5.97376 8.40724,5.9795 8.2997,5.9937 8.1766,6.0095 8.05035,6.0356 7.92247,6.0738 7.58168,6.1757 7.22975,6.36652 6.89667,6.6934 c 0.98085,-0.13417 1.1652,0.5908 1.1984,0.79943 0.0323,0.20885 0.0538,0.30123 0.0879,0.38913 0.11766,0.30156 0.35061,0.55736 0.67076,0.69711 0.64038,0.27941 1.3871,-0.0133 1.6666,-0.65371 0.27943,-0.64035 -0.0136,-1.3861 -0.65371,-1.6655 0,0 -0.54012,-0.28822 -1.2521,-0.28629 z m 3.0463,1.7523 c -0.0639,-0.007 -0.12683,-0.007 -0.18913,5.3e-4 -0.0712,0.009 -0.14155,0.0273 -0.21084,0.0584 -0.18481,0.0829 -0.36331,0.25073 -0.53692,0.52606 -0.69448,1.1014 0.21274,1.5234 1.3229,2.0536 0.50005,0.23873 2.5219,1.2729 2.9254,0.63304 0.40316,-0.64 -1.3982,-2.0238 -1.8283,-2.3735 -0.54843,-0.44584 -1.0359,-0.84651 -1.4831,-0.89814 z" />
    <path
       id="path6"
       fill="#8ac9e1"
       d="M 9.7009,2.0549 A 0.4325,0.4325 0 0 0 9.658,2.0589 0.4325,0.4325 0 0 0 9.4885,2.1183 C 9.04319,2.38849 8.51384,2.8213 7.9646,3.3833 a 3.1399,3.1399 0 0 0 -1.7405,-0.27182 3.1399,3.1399 0 0 0 -0.0264,0.004 3.1399,3.1399 0 0 0 -2.6805,3.5166 3.1399,3.1399 0 0 0 1.2511,2.1213 c -0.18517,0.65152 -0.31073,1.3305 -0.34881,2.0304 a 0.4325,0.4325 0 0 0 0.40979,0.45423 0.4325,0.4325 0 0 0 0.45527,-0.40773 c 0.0307,-0.56375 0.12884,-1.1167 0.27131,-1.6547 a 3.1399,3.1399 0 0 0 1.4816,0.16329 3.1399,3.1399 0 0 0 1.1555,-0.38964 C 7.95684,8.76861 7.76818,8.53898 7.63951,8.28157 a 2.2906,2.2906 0 0 1 -0.7121,0.21498 2.2906,2.2906 0 0 1 -2.5678,-1.9746 2.2906,2.2906 0 0 1 1.9746,-2.5678 2.2906,2.2906 0 0 1 2.3993,1.3627 c 0.37997,0.0122 0.70446,0.0837 0.94671,0.16174 A 3.1399,3.1399 0 0 0 8.70767,3.87099 C 9.17699,3.4062 9.61121,3.05614 9.93757,2.85809 A 0.4325,0.4325 0 0 0 10.08226,2.26381 0.4325,0.4325 0 0 0 9.70089,2.05556 Z" />
  </g>
</svg>
