<svg width="60" height="60" viewBox="0 0 15.875 15.875" xmlns="http://www.w3.org/2000/svg"><g color="#000"><path d="M6.357 1.955 4.148 3.23a.37.37 0 0 0-.182.315v2.551c0 .13.07.25.182.315l2.208 1.275c.124.068.25.066.363 0l2.209-1.275a.364.364 0 0 0 .182-.314V3.546c0-.133-.067-.246-.201-.323L6.716 1.956c-.132-.068-.245-.067-.36-.001zm.182.734 1.48.856-1.48.855-1.48-.855zM4.695 4.175l1.48.854v1.71l-1.48-.855zm3.688 0v1.71l-1.481.854v-1.71zm2.212.028a.374.374 0 1 0 0 .748h3.212v4.042h-2.525l.425-.425a.373.373 0 1 0-.53-.53l-1.062 1.064a.378.378 0 0 0-.104.336.355.355 0 0 0 .055.134v.001c.014.02.03.04.05.059l1.063 1.064a.373.373 0 1 0 .529-.53l-.426-.425h2.898a.373.373 0 0 0 .374-.37v-.003l.001-4.79a.373.373 0 0 0-.37-.374h-.003z" fill="#007dad" style="font-feature-settings:normal;font-variant-alternates:normal;font-variant-caps:normal;font-variant-east-asian:normal;font-variant-ligatures:normal;font-variant-numeric:normal;font-variant-position:normal;font-variation-settings:normal;inline-size:0;isolation:auto;mix-blend-mode:normal;shape-margin:0;shape-padding:0;text-decoration-color:#000;text-decoration-line:none;text-decoration-style:solid;text-indent:0;text-orientation:mixed;text-transform:none;white-space:normal" transform="translate(-1.323 1.292)"/><path d="M6.563 8.438c-.124 0-.249.03-.344.088L4.298 9.714c-.191.119-.191.309 0 .427l1.87 1.157a.715.715 0 0 0 .69 0l1.92-1.188c.191-.118.191-.308 0-.427l-1.87-1.157a.666.666 0 0 0-.345-.088z" fill="#8ac9e1" style="font-feature-settings:normal;font-variant-alternates:normal;font-variant-caps:normal;font-variant-east-asian:normal;font-variant-ligatures:normal;font-variant-numeric:normal;font-variant-position:normal;font-variation-settings:normal;inline-size:0;isolation:auto;mix-blend-mode:normal;shape-margin:0;shape-padding:0;text-decoration-color:#000;text-decoration-line:none;text-decoration-style:solid;text-indent:0;text-orientation:mixed;text-transform:none;white-space:normal" transform="translate(-1.323 1.292)"/></g></svg>