<svg xmlns="http://www.w3.org/2000/svg" viewBox="0 0 15.875 15.875" height="60" width="60"><path fill="#007dad" d="M7.9 4.507a3.388 3.388 0 0 0-4.627 1.24 3.388 3.388 0 0 0 1.24 4.628 3.388 3.388 0 0 0 4.319-.793.521.521 0 0 0 .259.48l3.518 2.03c.25.146.57.06.715-.191l.304-.527a.522.522 0 0 0-.192-.714L9.918 8.628a.52.52 0 0 0-.545.016 3.388 3.388 0 0 0-1.472-4.137zm-.422.701a2.57 2.57 0 0 1 .013.007 2.57 2.57 0 0 1 .94 3.51 2.57 2.57 0 0 1-3.51.94 2.57 2.57 0 0 1-.94-3.51 2.57 2.57 0 0 1 3.497-.947z"/><path fill="#8ac9e1" d="M10.75 3.712a.782.782 0 0 0-.776.75c-.284.134-.575.288-.87.455a4.043 4.043 0 0 1 .424.598c.257-.145.511-.28.757-.396a.782.782 0 0 0 .47.156.782.782 0 0 0 .78-.782.782.782 0 0 0-.78-.781.782.782 0 0 0-.005 0zM7.495 5.777c-.19.147-.38.297-.57.452l-.017-.01-.007-.004a1.407 1.407 0 0 0-1.972 1.818c-.17.171-.34.345-.508.522.17.304.43.53.725.702.169-.178.338-.352.51-.523a1.407 1.407 0 0 0 1.893-1.71c.19-.155.382-.306.572-.454a1.848 1.848 0 0 0-.626-.793Zm-4.093 4.298c-.12.17-.24.34-.354.516a.782.782 0 0 0-.09-.005.782.782 0 0 0-.781.782.782.782 0 0 0 .781.781.782.782 0 0 0 .782-.781.782.782 0 0 0-.09-.366c.099-.15.202-.3.306-.447a4.043 4.043 0 0 1-.554-.48Z"/></svg>