<?xml version="1.0" encoding="UTF-8" standalone="no"?>
<svg
   xmlns:dc="http://purl.org/dc/elements/1.1/"
   xmlns:cc="http://creativecommons.org/ns#"
   xmlns:rdf="http://www.w3.org/1999/02/22-rdf-syntax-ns#"
   xmlns:svg="http://www.w3.org/2000/svg"
   xmlns="http://www.w3.org/2000/svg"
   xmlns:sodipodi="http://sodipodi.sourceforge.net/DTD/sodipodi-0.dtd"
   xmlns:inkscape="http://www.inkscape.org/namespaces/inkscape"
   inkscape:version="1.0 (4035a4fb49, 2020-05-01)"
   sodipodi:docname="pse-icon-lineup-notext.svg"
   id="svg18"
   viewBox="0 0 15.875143 15.875143"
   version="1.1"
   height="60"
   width="60">
  <defs
     id="defs22" />
  <sodipodi:namedview
     inkscape:current-layer="svg18"
     inkscape:window-maximized="1"
     inkscape:window-y="-8"
     inkscape:window-x="-8"
     inkscape:cy="28.232863"
     inkscape:cx="23.030627"
     inkscape:zoom="11.821839"
     showgrid="false"
     id="namedview20"
     inkscape:window-height="1017"
     inkscape:window-width="1920"
     inkscape:pageshadow="2"
     inkscape:pageopacity="0"
     guidetolerance="10"
     gridtolerance="10"
     objecttolerance="10"
     borderopacity="1"
     bordercolor="#666666"
     pagecolor="#ffffff" />
  <metadata
     id="metadata2">
    <rdf:RDF>
      <cc:Work
         rdf:about="">
        <dc:format>image/svg+xml</dc:format>
        <dc:type
           rdf:resource="http://purl.org/dc/dcmitype/StillImage" />
        <dc:title></dc:title>
      </cc:Work>
    </rdf:RDF>
  </metadata>
  <g
     transform="translate(-142.52912,0.61069947)"
     id="g14">
    <path
       d="m 145.16,3.2079 c -0.42344,0 -0.76427,0.34135 -0.76427,0.76481 v 5.3997 c 0,0.42346 0.34083,0.76429 0.76427,0.76429 h 2.8216 V 6.4873 h 5.7159 V 3.9727 c 0,-0.42346 -0.34086,-0.76481 -0.7643,-0.76481 z m -0.0362,1.4552 h 2.1296 v 1.0961 h -2.1296 z m 2.8577,0 h 2.1301 v 1.0961 h -2.1301 z m 2.8582,0 h 2.1296 v 1.0961 h -2.1296 z m -5.7159,1.8242 h 2.1296 v 1.0966 h -2.1296 z m 0,1.8247 h 2.1296 v 1.0966 h -2.1296 z"
       fill="#007dad"
       stroke-linecap="round"
       stroke-linejoin="round"
       stroke-width="0.26458"
       id="path8" />
    <path
       transform="matrix(0.26458,0,0,0.26458,-131.87,27.527)"
       d="m 1063.2,-76.77 c -1.6775,0 -3.0273,1.3537 -3.0273,3.0312 v 9.9316 c 0,1.6775 1.3498,3.0273 3.0273,3.0273 h 10.531 v -15.99 z m 3.7851,2.3145 c 0.2726,0.0099 0.5206,0.13461 0.6563,0.33008 l 2.1504,3.0781 c 0.3061,0.43906 -0.078,0.98638 -0.6914,0.98633 h -4.2969 c -0.6128,8e-5 -0.9975,-0.54725 -0.6914,-0.98633 l 2.1504,-3.0781 c 0.1364,-0.1947 0.3845,-0.31864 0.6562,-0.32812 0.023,-0.0015 0.044,-0.0021 0.066,-0.002 z m -2.1816,6.9707 h 4.2969 c 0.6132,-5.6e-5 0.9975,0.54922 0.6914,0.98828 l -2.1504,3.0762 c -0.3069,0.43787 -1.072,0.43787 -1.3789,0 l -2.1504,-3.0762 c -0.3061,-0.43908 0.078,-0.98836 0.6914,-0.98828 z"
       color="#000000"
       color-rendering="auto"
       dominant-baseline="auto"
       fill="#8ac9e1"
       image-rendering="auto"
       shape-rendering="auto"
       solid-color="#000000"
       stop-color="#000000"
       style="font-variant-ligatures:normal;font-variant-position:normal;font-variant-caps:normal;font-variant-numeric:normal;font-variant-alternates:normal;font-variant-east-asian:normal;font-feature-settings:normal;font-variation-settings:normal;text-indent:0;text-decoration:none;text-decoration-line:none;text-decoration-style:solid;text-decoration-color:#000000;text-transform:none;text-orientation:mixed;white-space:normal;shape-padding:0;shape-margin:0;inline-size:0;isolation:auto;mix-blend-mode:normal"
       id="path10" />
    <path
       transform="matrix(0.26458,0,0,0.26458,-131.87,27.527)"
       d="m 1076.5,-76.77 v 15.99 h 10.531 c 1.6776,0 3.0274,-1.3499 3.0274,-3.0273 v -9.9316 c 0,-1.6775 -1.3498,-3.0312 -3.0274,-3.0312 z m 3.3633,3.2871 c 0.011,0 0.022,-1.77e-4 0.033,0 h 6.7598 c 0.7394,-2.81e-4 1.2014,0.66174 0.832,1.1914 l -2.9844,3.1465 v 2.5801 c 5e-4,0.31047 -0.1107,0.61157 -0.3125,0.84766 l -1.2598,1.4746 c -0.3031,0.35369 -0.8817,0.13966 -0.8828,-0.32617 v -4.5762 l -2.9863,-3.1465 c -0.3621,-0.5182 0.073,-1.1691 0.7969,-1.1914 z"
       color="#000000"
       color-rendering="auto"
       dominant-baseline="auto"
       fill="#8ac9e1"
       image-rendering="auto"
       shape-rendering="auto"
       solid-color="#000000"
       stop-color="#000000"
       style="font-variant-ligatures:normal;font-variant-position:normal;font-variant-caps:normal;font-variant-numeric:normal;font-variant-alternates:normal;font-variant-east-asian:normal;font-feature-settings:normal;font-variation-settings:normal;text-indent:0;text-decoration:none;text-decoration-line:none;text-decoration-style:solid;text-decoration-color:#000000;text-transform:none;text-orientation:mixed;white-space:normal;shape-padding:0;shape-margin:0;inline-size:0;isolation:auto;mix-blend-mode:normal"
       id="path12" />
  </g>
</svg>
