<?xml version="1.0" encoding="UTF-8" standalone="no"?>
<svg
   xmlns:dc="http://purl.org/dc/elements/1.1/"
   xmlns:cc="http://creativecommons.org/ns#"
   xmlns:rdf="http://www.w3.org/1999/02/22-rdf-syntax-ns#"
   xmlns:svg="http://www.w3.org/2000/svg"
   xmlns="http://www.w3.org/2000/svg"
   xmlns:sodipodi="http://sodipodi.sourceforge.net/DTD/sodipodi-0.dtd"
   xmlns:inkscape="http://www.inkscape.org/namespaces/inkscape"
   inkscape:version="1.0 (4035a4fb49, 2020-05-01)"
   sodipodi:docname="pse-icon-project-notext.svg"
   id="svg16"
   viewBox="0 0 15.875143 15.875143"
   version="1.1"
   height="60"
   width="60">
  <defs
     id="defs20" />
  <sodipodi:namedview
     inkscape:current-layer="svg16"
     inkscape:window-maximized="1"
     inkscape:window-y="-8"
     inkscape:window-x="-8"
     inkscape:cy="28.232863"
     inkscape:cx="23.030627"
     inkscape:zoom="11.821839"
     showgrid="false"
     id="namedview18"
     inkscape:window-height="1017"
     inkscape:window-width="1920"
     inkscape:pageshadow="2"
     inkscape:pageopacity="0"
     guidetolerance="10"
     gridtolerance="10"
     objecttolerance="10"
     borderopacity="1"
     bordercolor="#666666"
     pagecolor="#ffffff" />
  <metadata
     id="metadata2">
    <rdf:RDF>
      <cc:Work
         rdf:about="">
        <dc:format>image/svg+xml</dc:format>
        <dc:type
           rdf:resource="http://purl.org/dc/dcmitype/StillImage" />
        <dc:title></dc:title>
      </cc:Work>
    </rdf:RDF>
  </metadata>
  <g
     transform="translate(-1.3228385,1.2915163)"
     shape-rendering="auto"
     id="g8">
    <path
       d="M 6.3568,1.9547 4.1481,3.2301 4.14758,3.230629 C 4.01209,3.318951 3.96575,3.440489 3.96575,3.545359 v 2.5508 c 1.739e-4,0.12983 0.069484,0.24975 0.1819,0.31471 l 2.2086,1.2754 c 0.1234,0.068211 0.24952,0.065512 0.3623,4e-4 l 2.2092,-1.2754 c 0.11242,-0.06496 0.18173,-0.18487 0.1819,-0.31471 v -2.5508 c 0,-0.13285 -0.066503,-0.24565 -0.20083,-0.3232 l -2.1926,-1.2661 C 6.58407,1.887864 6.47066,1.888935 6.35673,1.95471 Z m 0.18192,0.73431 1.48,0.85628 -1.48,0.85473 -1.4805,-0.85473 z m -1.8438,1.4857 1.4805,0.85473 v 1.7094 L 4.69492,5.88411 Z m 3.6876,0 v 1.7094 l -1.4805,0.85473 v -1.7094 z m 2.2128,0.0284 c -0.20724,0 -0.37414,0.16637 -0.37414,0.37362 0,0.20724 0.1669,0.37339 0.37414,0.37414 h 3.2117 v 4.0421 h -2.5249 l 0.42529,-0.4253 c 0.1465,-0.14659 0.14659,-0.38208 0,-0.52865 C 11.56087,7.89247 11.3248,7.89196 11.17825,8.038491 l -1.063,1.064 c -0.0367,0.0367 -0.0649,0.0791 -0.0832,0.12402 -0.0183,0.0451 -0.0266,0.0929 -0.0269,0.14056 -1.9e-4,0.0239 0.002,0.0478 0.006,0.0713 V 9.4389 c 0.004,0.0234 0.0121,0.0463 0.0212,0.0687 0.009,0.0227 0.0203,0.0442 0.0341,0.0651 v 5.29e-4 c 0.0137,0.0207 0.0304,0.0402 0.0486,0.0584 v 5.29e-4 l 1.0635,1.0635 c 0.14654,0.14655 0.38262,0.14655 0.52917,0 0.14655,-0.14655 0.14654,-0.38265 0,-0.52916 l -0.42582,-0.4253 h 2.8985 c 0.2062,0 0.37191,-0.16476 0.37361,-0.37052 h 5.3e-4 v -0.003 c -2.6e-4,-1.311 5.3e-4,-3.4798 5.3e-4,-4.7904 0,-0.20617 -0.16476,-0.37191 -0.37052,-0.37362 v -5.29e-4 h -0.003 z"
       color="#000000"
       color-rendering="auto"
       dominant-baseline="auto"
       fill="#007dad"
       image-rendering="auto"
       solid-color="#000000"
       stop-color="#000000"
       style="font-variant-ligatures:normal;font-variant-position:normal;font-variant-caps:normal;font-variant-numeric:normal;font-variant-alternates:normal;font-variant-east-asian:normal;font-feature-settings:normal;font-variation-settings:normal;text-indent:0;text-decoration:none;text-decoration-line:none;text-decoration-style:solid;text-decoration-color:#000000;text-transform:none;text-orientation:mixed;white-space:normal;shape-padding:0;shape-margin:0;inline-size:0;isolation:auto;mix-blend-mode:normal"
       id="path4" />
    <path
       d="m 6.5632,8.438 c -0.12469,0 -0.24914,0.0293 -0.34468,0.0884 l -1.9208,1.188 c -0.19107,0.11821 -0.19107,0.30863 0,0.42685 l 1.8702,1.157 c 0.19109,0.11822 0.4988,0.11822 0.68989,0 l 1.9203,-1.188 C 8.9692,9.99203 8.9692,9.80162 8.77811,9.6834 L 6.90791,8.5264 C 6.81241,8.4673 6.68792,8.438 6.56323,8.438 Z"
       color="#000000"
       color-rendering="auto"
       dominant-baseline="auto"
       fill="#8ac9e1"
       image-rendering="auto"
       solid-color="#000000"
       stop-color="#000000"
       style="font-variant-ligatures:normal;font-variant-position:normal;font-variant-caps:normal;font-variant-numeric:normal;font-variant-alternates:normal;font-variant-east-asian:normal;font-feature-settings:normal;font-variation-settings:normal;text-indent:0;text-decoration:none;text-decoration-line:none;text-decoration-style:solid;text-decoration-color:#000000;text-transform:none;text-orientation:mixed;white-space:normal;shape-padding:0;shape-margin:0;inline-size:0;isolation:auto;mix-blend-mode:normal"
       id="path6" />
  </g>
</svg>
