<svg xmlns="http://www.w3.org/2000/svg" viewBox="0 0 15.875 15.875" height="60" width="60"><path d="M6.764 2.903c-1.71.015-3.08.675-3.08 1.484 0 .82 1.406 1.485 3.14 1.485 1.735 0 3.14-.665 3.14-1.485 0-.82-1.406-1.484-3.14-1.484h-.06zm-3.08 2.606v4.049c0 .903 1.636 1.485 2.9 1.485V8.427c0-.56.463-1.027 1.025-1.027h2.356V5.51a2.5 2.5 0 0 1-.763.537c-.649.307-1.51.472-2.378.472-.867 0-1.73-.165-2.378-.472a2.5 2.5 0 0 1-.762-.537z" fill="#007dad"/><path d="M-13.68 14.3a.767.767 0 0 0-.768.769v3.306c0 .426.342.769.768.769h3.342a.767.767 0 0 0 .769-.769V15.07a.767.767 0 0 0-.769-.769Zm0 .729h1.307v.643h-1.346v-.603c0-.036.004-.04.038-.04zm2.035 0h1.306c.034 0 .041.007.041.04v.603h-1.347zm-2.074 1.371h1.346v.644h-1.346zm2.074 0h1.347v.644h-1.347zm-2.074 1.372h1.346v.643h-1.308c-.033 0-.038-.005-.038-.04zm2.074 0h1.347v.602c0 .034-.007.041-.04.041h-1.307z" color="#000" fill="#8ac9e1" style="font-variant-ligatures:normal;font-variant-position:normal;font-variant-caps:normal;font-variant-numeric:normal;font-variant-alternates:normal;font-variant-east-asian:normal;font-feature-settings:normal;font-variation-settings:normal;text-indent:0;text-decoration:none;text-decoration-line:none;text-decoration-style:solid;text-decoration-color:#000;text-transform:none;text-orientation:mixed;white-space:normal;shape-padding:0;shape-margin:0;inline-size:0;isolation:auto;mix-blend-mode:normal" transform="translate(21.76 -6.171)"/></svg>