<?xml version="1.0" encoding="UTF-8" standalone="no"?>
<svg
   xmlns:dc="http://purl.org/dc/elements/1.1/"
   xmlns:cc="http://creativecommons.org/ns#"
   xmlns:rdf="http://www.w3.org/1999/02/22-rdf-syntax-ns#"
   xmlns:svg="http://www.w3.org/2000/svg"
   xmlns="http://www.w3.org/2000/svg"
   xmlns:sodipodi="http://sodipodi.sourceforge.net/DTD/sodipodi-0.dtd"
   xmlns:inkscape="http://www.inkscape.org/namespaces/inkscape"
   inkscape:version="1.0 (4035a4fb49, 2020-05-01)"
   sodipodi:docname="pse-icon-details-notext.svg"
   id="svg14"
   viewBox="0 0 15.875143 15.875143"
   version="1.1"
   height="60"
   width="60">
  <defs
     id="defs18" />
  <sodipodi:namedview
     inkscape:current-layer="svg14"
     inkscape:window-maximized="1"
     inkscape:window-y="-8"
     inkscape:window-x="-8"
     inkscape:cy="28.232863"
     inkscape:cx="23.030627"
     inkscape:zoom="11.821839"
     showgrid="false"
     id="namedview16"
     inkscape:window-height="1017"
     inkscape:window-width="1920"
     inkscape:pageshadow="2"
     inkscape:pageopacity="0"
     guidetolerance="10"
     gridtolerance="10"
     objecttolerance="10"
     borderopacity="1"
     bordercolor="#666666"
     pagecolor="#ffffff" />
  <metadata
     id="metadata2">
    <rdf:RDF>
      <cc:Work
         rdf:about="">
        <dc:format>image/svg+xml</dc:format>
        <dc:type
           rdf:resource="http://purl.org/dc/dcmitype/StillImage" />
        <dc:title></dc:title>
      </cc:Work>
    </rdf:RDF>
  </metadata>
  <g
     transform="translate(-1.322736,1.2912382)"
     id="g26">
    <path
       id="path4"
       fill="#007dad"
       d="m 9.2233,3.2156 a 3.3878,3.3878 0 0 0 -4.628,1.2401 3.3878,3.3878 0 0 0 1.2401,4.628 3.3878,3.3878 0 0 0 4.3189,-0.79256 c -0.009,0.18962 0.0829,0.37726 0.25926,0.47906 l 3.518,2.0311 c 0.2511,0.14498 0.57013,0.0595 0.71509,-0.1916 l 0.30412,-0.52675 C 15.09573,9.83187 15.00997,9.51328 14.7589,9.36831 l -3.518,-2.0311 c -0.17661,-0.10197 -0.3852,-0.088 -0.54477,0.0155 a 3.3878,3.3878 0 0 0 -1.4728,-4.137 z M 8.80104,3.917 a 2.5693,2.5693 0 0 1 0.013,0.007 2.5693,2.5693 0 0 1 0.94,3.5096 2.5693,2.5693 0 0 1 -3.5094,0.9407 2.5693,2.5693 0 0 1 -0.94045,-3.5098 2.5693,2.5693 0 0 1 3.4968,-0.94794 z" />
    <path
       id="path6"
       fill="#8ac9e1"
       d="m 12.073,2.4208 a 0.78171,0.78171 0 0 0 -0.77669,0.74982 c -0.2833,0.13369 -0.57482,0.28831 -0.86972,0.45476 a 4.0426,4.0426 0 0 1 0.42375,0.59789 c 0.25757,-0.1444 0.51185,-0.27948 0.75758,-0.39584 a 0.78171,0.78171 0 0 0 0.46922,0.15658 0.78171,0.78171 0 0 0 0.78134,-0.78186 0.78171,0.78171 0 0 0 -0.78134,-0.78135 0.78171,0.78171 0 0 0 -0.004,0 z m -3.2551,2.065 c -0.19039,0.14709 -0.38038,0.29735 -0.57,0.45217 -0.006,-0.003 -0.0113,-0.007 -0.017,-0.0104 -0.002,-0.001 -0.005,-0.003 -0.007,-0.004 H 8.22337 C 7.55083,4.5407 6.69527,4.77227 6.30827,5.4424 6.07848,5.84043 6.05737,6.32568 6.25197,6.7421 6.08112,6.91273 5.91191,7.08682 5.74399,7.26352 5.91447,7.56759 6.17411,7.79361 6.46901,7.96528 6.63744,7.78819 6.80705,7.61344 6.97854,7.44284 7.63277,7.71965 8.39074,7.46534 8.74584,6.85011 8.94127,6.51147 8.98681,6.10711 8.87193,5.73341 9.06209,5.5777 9.25337,5.42681 9.44399,5.27917 9.33605,4.98869 9.08515,4.67422 8.81819,4.48542 Z M 4.7246,8.7837 C 4.604,8.95323 4.48549,9.1247 4.37062,9.29943 A 0.78171,0.78171 0 0 0 4.28122,9.29443 0.78171,0.78171 0 0 0 3.49936,10.0763 0.78171,0.78171 0 0 0 4.28122,10.85816 0.78171,0.78171 0 0 0 5.06309,10.0763 0.78171,0.78171 0 0 0 4.97209,9.71094 C 5.07159,9.55985 5.17424,9.41118 5.27854,9.26394 A 4.0426,4.0426 0 0 1 4.72456,8.78386 Z" />
  </g>
</svg>
