<?xml version="1.0" encoding="UTF-8" standalone="no"?>
<svg
   xmlns:dc="http://purl.org/dc/elements/1.1/"
   xmlns:cc="http://creativecommons.org/ns#"
   xmlns:rdf="http://www.w3.org/1999/02/22-rdf-syntax-ns#"
   xmlns:svg="http://www.w3.org/2000/svg"
   xmlns="http://www.w3.org/2000/svg"
   xmlns:sodipodi="http://sodipodi.sourceforge.net/DTD/sodipodi-0.dtd"
   xmlns:inkscape="http://www.inkscape.org/namespaces/inkscape"
   sodipodi:docname="vis-logo-svg.svg"
   inkscape:version="1.0 (4035a4fb49, 2020-05-01)"
   id="svg8"
   version="1.1"
   viewBox="0 0 178.80009 56"
   height="56mm"
   width="178.80009mm"
   inkscape:export-filename="D:\Dokumente\Dissertation\Designs\Vis Group Logo\DataVisGroup_White2.png"
   inkscape:export-xdpi="200"
   inkscape:export-ydpi="200">
  <defs
     id="defs2" />
  <sodipodi:namedview
     inkscape:object-paths="true"
     inkscape:snap-bbox="false"
     inkscape:snap-object-midpoints="true"
     inkscape:window-maximized="1"
     inkscape:window-y="-8"
     inkscape:window-x="1912"
     inkscape:window-height="1017"
     inkscape:window-width="1920"
     fit-margin-bottom="3"
     fit-margin-right="3"
     fit-margin-left="3"
     fit-margin-top="3"
     inkscape:snap-global="true"
     showgrid="false"
     inkscape:document-rotation="0"
     inkscape:current-layer="layer1"
     inkscape:document-units="mm"
     inkscape:cy="148.51977"
     inkscape:cx="328.2342"
     inkscape:zoom="0.78528237"
     inkscape:pageshadow="2"
     inkscape:pageopacity="1"
     borderopacity="1.0"
     bordercolor="#666666"
     pagecolor="#ffffff"
     id="base" />
  <metadata
     id="metadata5">
    <rdf:RDF>
      <cc:Work
         rdf:about="">
        <dc:format>image/svg+xml</dc:format>
        <dc:type
           rdf:resource="http://purl.org/dc/dcmitype/StillImage" />
        <dc:title />
      </cc:Work>
    </rdf:RDF>
  </metadata>
  <g
     transform="translate(-105.59018,-189.27042)"
     id="layer1"
     inkscape:groupmode="layer"
     inkscape:label="Ebene 1">
    <path
       sodipodi:nodetypes="cssssccccccsscssccccscsssccscsscssssssssscccssssssssccsssccssssscscscccccc"
       id="path863"
       d="m 231.44946,207.64874 c -0.51726,-0.0284 -0.96527,-0.0828 -1.4124,-0.17148 -1.17619,-0.23327 -2.15652,-0.68235 -2.97626,-1.36341 -0.17132,-0.14233 -0.53317,-0.50433 -0.67861,-0.67891 -0.91597,-1.09936 -1.4331,-2.52971 -1.56314,-4.32348 -0.029,-0.39929 -0.0324,-0.91432 -0.0327,-4.79519 v -4.04584 h 1.83269 1.83267 l 0.004,4.18602 c 0.004,4.56852 -7.4e-4,4.23484 0.0624,4.68434 0.2096,1.49464 0.95838,2.51386 2.15075,2.92762 0.25299,0.0878 0.51012,0.14594 0.82973,0.1877 0.21681,0.0282 0.87845,0.0284 1.10492,1.4e-4 0.66793,-0.0832 1.18744,-0.27029 1.63903,-0.58995 0.72373,-0.51224 1.18254,-1.35092 1.34171,-2.45244 0.0567,-0.39208 0.0528,-0.0735 0.0568,-4.68196 l 0.004,-4.26148 h 1.83268 1.83272 v 4.05124 c 0,4.04391 -0.003,4.3193 -0.0381,4.779 -0.14057,1.80145 -0.68823,3.26874 -1.62641,4.35747 -0.16359,0.18986 -0.47264,0.49499 -0.65347,0.64519 -1.12037,0.93057 -2.56246,1.438 -4.38129,1.54167 -0.17011,0.0107 -1.00316,0.0134 -1.16053,0.004 z m -35.11075,-0.0211 c -0.18077,-0.012 -0.49187,-0.0401 -0.63072,-0.0585 -1.53375,-0.20383 -2.84268,-0.84817 -3.93019,-1.93472 -0.11289,-0.11275 -0.26204,-0.27017 -0.33163,-0.34992 l -0.12661,-0.145 0.0364,-0.0382 c 0.02,-0.0211 0.53013,-0.58896 1.13364,-1.26202 0.60352,-0.67303 1.10568,-1.23261 1.1159,-1.2435 0.0179,-0.0191 0.0302,-0.008 0.30852,0.27055 0.3886,0.38915 0.60719,0.57358 0.94218,0.79497 0.5638,0.37255 1.10183,0.55192 1.71968,0.57326 0.96469,0.0333 1.66254,-0.3463 2.02776,-1.1031 0.15056,-0.31193 0.2377,-0.65366 0.29239,-1.14662 0.0172,-0.15504 0.0188,-0.51243 0.022,-4.94074 l 0.004,-4.77361 h 1.87599 1.87597 l -0.004,4.94612 c -0.003,3.70417 -0.006,4.98131 -0.0163,5.08627 -0.0529,0.57969 -0.11488,0.96417 -0.22244,1.38008 -0.22865,0.88404 -0.61375,1.61893 -1.1812,2.25398 -0.21851,0.24456 -0.54061,0.52114 -0.84085,0.72205 -0.80339,0.53762 -1.73222,0.84055 -2.91108,0.94942 -0.17831,0.0163 -0.98705,0.03 -1.15903,0.0193 z m 9.06206,-2.00405 v -1.80593 h 4.16174 c 2.28898,0 4.16177,-0.004 4.16177,-0.009 0,-0.005 -1.87257,-1.61175 -4.16126,-3.57145 l -4.16124,-3.56312 -4.9e-4,-2.19677 c -2.5e-4,-1.20824 9.1e-4,-2.19678 0.005,-2.19678 0.004,0 7.50214,6.41895 8.30895,7.11254 0.0154,0.0133 0.47912,-0.38039 4.16218,-3.53528 2.2796,-1.95266 4.153,-3.55696 4.16314,-3.5651 0.0173,-0.014 0.0184,0.11102 0.0184,2.18339 v 2.19826 l -4.15906,3.56202 c -2.28748,1.95913 -4.16067,3.56624 -4.16266,3.57136 -0.003,0.005 1.82202,0.009 4.15907,0.009 h 4.16265 v 1.80593 1.80597 h -8.3289 -8.3289 z"
       style="fill:#bfbfbf;fill-opacity:1;stroke-width:0.0107817" />
    <path
       sodipodi:nodetypes="cscscsccsccssccscscssssssscss"
       d="m 147.40415,192.27042 c -7.58236,0.0132 -14.7839,2.02398 -21.60453,6.03273 -6.84327,4.02204 -12.29039,9.34619 -16.34137,15.97243 -0.57871,1.01275 -0.86807,2.01103 -0.86807,2.99484 0,0.98381 0.28936,1.98208 0.86807,2.99483 4.05098,6.62625 9.4981,11.95039 16.34137,15.97244 6.82063,4.00874 14.02217,6.01947 21.60453,6.03273 v -5.55564 c -6.74216,-0.013 -13.0033,-1.77056 -18.78331,-5.27317 -5.80159,-3.51567 -10.62659,-8.2394 -14.47503,-14.17119 4.39821,-6.8288 9.91044,-11.93593 16.53669,-15.32139 -1.76507,3.0093 -2.64761,6.26455 -2.64761,9.76576 0,5.35307 1.90251,9.93213 5.70754,13.73716 3.78712,3.78712 8.69611,6.37777 13.66172,6.39441 z m -6.06528,8.09065 c 0.003,-1e-5 0.007,-1e-5 0.0104,0 1.15052,0 2.0832,0.93268 2.0832,2.0832 -1e-5,0.75025 -0.40344,1.44255 -1.05618,1.81243 -0.44477,0.31267 -0.87064,0.67143 -1.27701,1.07779 -1.76507,1.76507 -2.6476,3.89183 -2.6476,6.3803 0,0.57871 -0.20255,1.07061 -0.60765,1.47571 -0.4051,0.4051 -0.897,0.60765 -1.47572,0.60765 -0.57871,0 -1.07061,-0.20255 -1.47571,-0.60765 -0.4051,-0.4051 -0.60765,-0.897 -0.60765,-1.47571 0,-3.61695 1.29487,-6.72029 3.8846,-9.31003 0.59654,-0.59653 1.22086,-1.12299 1.87194,-1.58201 0.36762,-0.29651 0.82507,-0.4593 1.29736,-0.46168 z"
       style="fill:#bfbfbf;fill-opacity:1;stroke-width:0.0434033"
       id="path6" />
    <path
       id="path888"
       style="fill:#007dad;fill-opacity:1;stroke-width:0.303198;stroke-linecap:round;stroke-linejoin:round"
       d="M 149.52441,223.54257 H 176.733 l -1e-5,8.30379 h -27.20858 z"
       sodipodi:nodetypes="ccccc" />
    <path
       sodipodi:nodetypes="ccccc"
       d="m 149.52441,233.96662 h 14.04374 v 8.30379 h -14.04374 z"
       style="fill:#f15a4e;fill-opacity:1;stroke-width:0.217828;stroke-linecap:round;stroke-linejoin:round"
       id="path890" />
    <path
       sodipodi:nodetypes="ccccc"
       d="m 149.52441,192.27042 h 7.22019 l -1e-5,8.30379 h -7.22019 z"
       style="fill:#ae619d;fill-opacity:1;stroke-width:0.156188;stroke-linecap:round;stroke-linejoin:round"
       id="path907" />
    <path
       id="path909"
       style="fill:#b2d349;fill-opacity:1;stroke-width:0.26984;stroke-linecap:round;stroke-linejoin:round"
       d="m 149.52441,202.69447 h 21.55064 v 8.30379 H 149.5244 Z"
       sodipodi:nodetypes="ccccc" />
    <path
       sodipodi:nodetypes="ccccc"
       d="m 149.52441,213.11852 h 33.86557 v 8.30379 H 149.5244 Z"
       style="fill:#fdb812;fill-opacity:1;stroke-width:0.338262;stroke-linecap:round;stroke-linejoin:round"
       id="path911" />
    <g
       style="font-style:normal;font-variant:normal;font-weight:600;font-stretch:normal;font-size:15.1978px;line-height:1.05;font-family:Montserrat;-inkscape-font-specification:'Montserrat Semi-Bold';letter-spacing:-0.079375px;fill:#404040;fill-opacity:1;stroke:none;stroke-width:0.316623"
       id="text907"
       transform="scale(0.97253086,1.028245)"
       aria-label="
Visual Data
Science Lab">
      <path
         id="path841"
         style="font-style:normal;font-variant:normal;font-weight:600;font-stretch:normal;font-size:15.1978px;font-family:Montserrat;-inkscape-font-specification:'Montserrat Semi-Bold';fill:#404040;fill-opacity:1;stroke-width:0.316623"
         d="m 207.95455,207.47226 -4.63533,10.63846 h -1.94532 l -4.65053,-10.63846 h 2.14289 l 3.54109,8.20681 3.57148,-8.20681 z" />
      <path
         id="path843"
         style="font-style:normal;font-variant:normal;font-weight:600;font-stretch:normal;font-size:15.1978px;font-family:Montserrat;-inkscape-font-specification:'Montserrat Semi-Bold';fill:#404040;fill-opacity:1;stroke-width:0.316623"
         d="m 208.88962,209.99509 h 1.89973 v 8.11563 h -1.89973 z m 0.95747,-1.3374 q -0.51673,0 -0.86628,-0.31916 -0.34955,-0.33435 -0.34955,-0.82068 0,-0.48633 0.34955,-0.80548 0.34955,-0.33435 0.86628,-0.33435 0.51672,0 0.86627,0.31915 0.34955,0.30396 0.34955,0.77509 0,0.50153 -0.34955,0.85108 -0.33435,0.33435 -0.86627,0.33435 z" />
      <path
         id="path845"
         style="font-style:normal;font-variant:normal;font-weight:600;font-stretch:normal;font-size:15.1978px;font-family:Montserrat;-inkscape-font-specification:'Montserrat Semi-Bold';fill:#404040;fill-opacity:1;stroke-width:0.316623"
         d="m 215.711,218.2171 q -0.98786,0 -1.93012,-0.25836 -0.94226,-0.25836 -1.50458,-0.6535 l 0.72949,-1.4438 q 0.54712,0.36475 1.30701,0.59272 0.77509,0.21277 1.51978,0.21277 1.70216,0 1.70216,-0.89667 0,-0.42554 -0.44074,-0.59272 -0.42554,-0.16717 -1.383,-0.31915 -1.00305,-0.15198 -1.64136,-0.34955 -0.62311,-0.19757 -1.09424,-0.6839 -0.45594,-0.50153 -0.45594,-1.383 0,-1.15503 0.95746,-1.83893 0.97266,-0.6991 2.61403,-0.6991 0.83588,0 1.67175,0.19757 0.83588,0.18237 1.36781,0.50153 l -0.7295,1.44379 q -1.03345,-0.60791 -2.32526,-0.60791 -0.83588,0 -1.27662,0.25836 -0.42554,0.24316 -0.42554,0.6535 0,0.45594 0.45594,0.65351 0.47113,0.18237 1.44379,0.34955 0.97266,0.15198 1.59577,0.34955 0.62311,0.19757 1.06384,0.6687 0.45594,0.47113 0.45594,1.33741 0,1.13983 -0.98786,1.82373 -0.98786,0.6839 -2.69001,0.6839 z" />
      <path
         id="path847"
         style="font-style:normal;font-variant:normal;font-weight:600;font-stretch:normal;font-size:15.1978px;font-family:Montserrat;-inkscape-font-specification:'Montserrat Semi-Bold';fill:#404040;fill-opacity:1;stroke-width:0.316623"
         d="m 228.81762,209.99509 v 8.11563 h -1.80854 v -1.03345 q -0.45594,0.54712 -1.13984,0.85108 -0.6839,0.28875 -1.47418,0.28875 -1.62617,0 -2.56843,-0.89667 -0.92707,-0.91186 -0.92707,-2.69001 v -4.63533 h 1.89973 v 4.37697 q 0,1.09424 0.48633,1.64136 0.50152,0.53193 1.41339,0.53193 1.01826,0 1.61097,-0.62311 0.60791,-0.63831 0.60791,-1.82374 v -4.10341 z" />
      <path
         id="path849"
         style="font-style:normal;font-variant:normal;font-weight:600;font-stretch:normal;font-size:15.1978px;font-family:Montserrat;-inkscape-font-specification:'Montserrat Semi-Bold';fill:#404040;fill-opacity:1;stroke-width:0.316623"
         d="m 234.34077,209.90391 q 1.79334,0 2.7356,0.86627 0.95746,0.85108 0.95746,2.58363 v 4.75691 h -1.79334 v -0.98786 q -0.34955,0.53193 -1.00305,0.82068 -0.63831,0.27356 -1.55018,0.27356 -0.91186,0 -1.59577,-0.30395 -0.6839,-0.31916 -1.06384,-0.86628 -0.36475,-0.56232 -0.36475,-1.26141 0,-1.09425 0.80548,-1.74775 0.82069,-0.6687 2.56843,-0.6687 h 2.0973 v -0.12159 q 0,-0.85107 -0.51673,-1.30701 -0.50152,-0.45593 -1.50458,-0.45593 -0.6839,0 -1.3526,0.21277 -0.65351,0.21277 -1.10944,0.59271 l -0.74469,-1.383 q 0.6383,-0.48633 1.53497,-0.74469 0.89667,-0.25836 1.89973,-0.25836 z m -0.25836,6.93019 q 0.71429,0 1.26141,-0.31915 0.56232,-0.33435 0.79029,-0.94226 v -0.94227 h -1.96052 q -1.64136,0 -1.64136,1.07905 0,0.51672 0.41034,0.82068 0.41034,0.30395 1.13984,0.30395 z" />
      <path
         id="path851"
         style="font-style:normal;font-variant:normal;font-weight:600;font-stretch:normal;font-size:15.1978px;font-family:Montserrat;-inkscape-font-specification:'Montserrat Semi-Bold';fill:#404040;fill-opacity:1;stroke-width:0.316623"
         d="m 240.39252,206.83395 h 1.89972 v 11.27677 h -1.89972 z" />
      <path
         id="path853"
         style="font-style:normal;font-variant:normal;font-weight:600;font-stretch:normal;font-size:15.1978px;font-family:Montserrat;-inkscape-font-specification:'Montserrat Semi-Bold';fill:#404040;fill-opacity:1;stroke-width:0.316623"
         d="m 248.99459,207.47226 h 4.65052 q 1.70216,0 3.02437,0.6687 1.3222,0.65351 2.0517,1.86933 0.72949,1.20063 0.72949,2.7812 0,1.58057 -0.72949,2.79639 -0.7295,1.20063 -2.0517,1.86933 -1.32221,0.65351 -3.02437,0.65351 h -4.65052 z m 4.55934,8.9667 q 1.17023,0 2.0517,-0.44073 0.89667,-0.45594 1.3678,-1.27662 0.48633,-0.83588 0.48633,-1.93012 0,-1.09424 -0.48633,-1.91492 -0.47113,-0.83588 -1.3678,-1.27662 -0.88147,-0.45593 -2.0517,-0.45593 h -2.58363 v 7.29494 z" />
      <path
         id="path855"
         style="font-style:normal;font-variant:normal;font-weight:600;font-stretch:normal;font-size:15.1978px;font-family:Montserrat;-inkscape-font-specification:'Montserrat Semi-Bold';fill:#404040;fill-opacity:1;stroke-width:0.316623"
         d="m 264.38918,209.90391 q 1.79335,0 2.73561,0.86627 0.95746,0.85108 0.95746,2.58363 v 4.75691 h -1.79334 v -0.98786 q -0.34955,0.53193 -1.00306,0.82068 -0.6383,0.27356 -1.55017,0.27356 -0.91187,0 -1.59577,-0.30395 -0.6839,-0.31916 -1.06385,-0.86628 -0.36474,-0.56232 -0.36474,-1.26141 0,-1.09425 0.80548,-1.74775 0.82068,-0.6687 2.56843,-0.6687 h 2.0973 v -0.12159 q 0,-0.85107 -0.51673,-1.30701 -0.50153,-0.45593 -1.50458,-0.45593 -0.6839,0 -1.35261,0.21277 -0.6535,0.21277 -1.10944,0.59271 l -0.74469,-1.383 q 0.63831,-0.48633 1.53498,-0.74469 0.89667,-0.25836 1.89972,-0.25836 z m -0.25836,6.93019 q 0.7143,0 1.26142,-0.31915 0.56232,-0.33435 0.79029,-0.94226 v -0.94227 h -1.96052 q -1.64136,0 -1.64136,1.07905 0,0.51672 0.41034,0.82068 0.41034,0.30395 1.13983,0.30395 z" />
      <path
         id="path857"
         style="font-style:normal;font-variant:normal;font-weight:600;font-stretch:normal;font-size:15.1978px;font-family:Montserrat;-inkscape-font-specification:'Montserrat Semi-Bold';fill:#404040;fill-opacity:1;stroke-width:0.316623"
         d="m 275.31943,217.66998 q -0.33435,0.27356 -0.82068,0.41034 -0.47113,0.13678 -1.00306,0.13678 -1.3374,0 -2.0669,-0.69909 -0.72949,-0.6991 -0.72949,-2.03651 v -3.90583 h -1.33741 v -1.51978 h 1.33741 v -1.85414 h 1.89972 v 1.85414 h 2.17329 v 1.51978 h -2.17329 v 3.86024 q 0,0.59271 0.28876,0.91186 0.28876,0.30396 0.83588,0.30396 0.63831,0 1.06385,-0.33435 z" />
      <path
         id="path859"
         style="font-style:normal;font-variant:normal;font-weight:600;font-stretch:normal;font-size:15.1978px;font-family:Montserrat;-inkscape-font-specification:'Montserrat Semi-Bold';fill:#404040;fill-opacity:1;stroke-width:0.316623"
         d="m 279.90317,209.90391 q 1.79334,0 2.7356,0.86627 0.95746,0.85108 0.95746,2.58363 v 4.75691 h -1.79334 v -0.98786 q -0.34955,0.53193 -1.00305,0.82068 -0.63831,0.27356 -1.55018,0.27356 -0.91187,0 -1.59577,-0.30395 -0.6839,-0.31916 -1.06384,-0.86628 -0.36475,-0.56232 -0.36475,-1.26141 0,-1.09425 0.80548,-1.74775 0.82068,-0.6687 2.56843,-0.6687 h 2.0973 v -0.12159 q 0,-0.85107 -0.51673,-1.30701 -0.50153,-0.45593 -1.50458,-0.45593 -0.6839,0 -1.35261,0.21277 -0.6535,0.21277 -1.10943,0.59271 l -0.7447,-1.383 q 0.63831,-0.48633 1.53498,-0.74469 0.89667,-0.25836 1.89973,-0.25836 z m -0.25837,6.93019 q 0.7143,0 1.26142,-0.31915 0.56232,-0.33435 0.79029,-0.94226 v -0.94227 h -1.96052 q -1.64136,0 -1.64136,1.07905 0,0.51672 0.41034,0.82068 0.41034,0.30395 1.13983,0.30395 z" />
      <path
         id="path861"
         style="font-style:normal;font-variant:normal;font-weight:600;font-stretch:normal;font-size:15.1978px;font-family:Montserrat;-inkscape-font-specification:'Montserrat Semi-Bold';fill:#404040;fill-opacity:1;stroke-width:0.316623"
         d="m 201.52588,234.22039 q -1.23102,0 -2.38606,-0.34955 -1.13983,-0.34955 -1.80853,-0.92707 l 0.6839,-1.53498 q 0.6535,0.51673 1.59577,0.85108 0.95746,0.31915 1.91492,0.31915 1.18543,0 1.76294,-0.37994 0.59272,-0.37995 0.59272,-1.00306 0,-0.45593 -0.33435,-0.74469 -0.31916,-0.30395 -0.82069,-0.47113 -0.50152,-0.16718 -1.3678,-0.37994 -1.21582,-0.28876 -1.97571,-0.57752 -0.74469,-0.28876 -1.29181,-0.89667 -0.53193,-0.62311 -0.53193,-1.67176 0,-0.88147 0.47113,-1.59577 0.48633,-0.72949 1.44379,-1.15503 0.97266,-0.42554 2.37086,-0.42554 0.97266,0 1.91492,0.24317 0.94227,0.24316 1.62617,0.69909 l -0.62311,1.53498 q -0.6991,-0.41034 -1.45899,-0.62311 -0.75989,-0.21277 -1.47419,-0.21277 -1.17023,0 -1.74774,0.39515 -0.56232,0.39514 -0.56232,1.04864 0,0.45594 0.31915,0.7447 0.33435,0.28875 0.83588,0.45593 0.50153,0.16718 1.3678,0.37995 1.18543,0.27356 1.94532,0.57751 0.75989,0.28876 1.29181,0.89667 0.54713,0.60791 0.54713,1.64136 0,0.88148 -0.48633,1.59577 -0.47114,0.7143 -1.4438,1.13984 -0.97265,0.42554 -2.37085,0.42554 z" />
      <path
         id="path864"
         style="font-style:normal;font-variant:normal;font-weight:600;font-stretch:normal;font-size:15.1978px;font-family:Montserrat;-inkscape-font-specification:'Montserrat Semi-Bold';fill:#404040;fill-opacity:1;stroke-width:0.316623"
         d="m 211.24766,234.17479 q -1.26142,0 -2.26447,-0.53192 -1.00306,-0.53192 -1.56538,-1.47419 -0.56232,-0.95746 -0.56232,-2.15808 0,-1.20063 0.56232,-2.14289 0.56232,-0.94227 1.55018,-1.47419 1.00305,-0.53192 2.27967,-0.53192 1.20062,0 2.09729,0.48633 0.91187,0.48633 1.36781,1.39819 l -1.45899,0.85108 q -0.34955,-0.56232 -0.88147,-0.83588 -0.51673,-0.28876 -1.13984,-0.28876 -1.06385,0 -1.76294,0.6991 -0.6991,0.6839 -0.6991,1.83894 0,1.15503 0.6839,1.85413 0.6991,0.6839 1.77814,0.6839 0.62311,0 1.13984,-0.27356 0.53192,-0.28876 0.88147,-0.85108 l 1.45899,0.85108 q -0.47114,0.91187 -1.383,1.41339 -0.89667,0.48633 -2.0821,0.48633 z" />
      <path
         id="path866"
         style="font-style:normal;font-variant:normal;font-weight:600;font-stretch:normal;font-size:15.1978px;font-family:Montserrat;-inkscape-font-specification:'Montserrat Semi-Bold';fill:#404040;fill-opacity:1;stroke-width:0.316623"
         d="m 216.26073,225.95278 h 1.89973 v 8.11563 h -1.89973 z m 0.95747,-1.3374 q -0.51673,0 -0.86628,-0.31916 -0.34955,-0.33435 -0.34955,-0.82068 0,-0.48633 0.34955,-0.80548 0.34955,-0.33435 0.86628,-0.33435 0.51672,0 0.86627,0.31915 0.34955,0.30396 0.34955,0.77509 0,0.50153 -0.34955,0.85108 -0.33435,0.33435 -0.86627,0.33435 z" />
      <path
         id="path868"
         style="font-style:normal;font-variant:normal;font-weight:600;font-stretch:normal;font-size:15.1978px;font-family:Montserrat;-inkscape-font-specification:'Montserrat Semi-Bold';fill:#404040;fill-opacity:1;stroke-width:0.316623"
         d="m 228.20377,230.05619 q 0,0.19757 -0.0304,0.56232 h -6.36788 q 0.16718,0.89667 0.86628,1.42859 0.7143,0.51673 1.76294,0.51673 1.33741,0 2.20368,-0.88148 l 1.01826,1.17023 q -0.54712,0.65351 -1.383,0.98786 -0.83588,0.33435 -1.88453,0.33435 -1.33741,0 -2.35566,-0.53192 -1.01825,-0.53192 -1.58057,-1.47419 -0.54712,-0.95746 -0.54712,-2.15808 0,-1.18543 0.53192,-2.1277 0.54712,-0.95746 1.50458,-1.48938 0.95747,-0.53192 2.15809,-0.53192 1.18543,0 2.1125,0.53192 0.94226,0.51672 1.45898,1.47419 0.53193,0.94226 0.53193,2.18848 z m -4.10341,-2.67481 q -0.91187,0 -1.55017,0.54712 -0.62311,0.53192 -0.75989,1.42859 h 4.60493 q -0.12158,-0.88147 -0.74469,-1.42859 -0.62311,-0.54712 -1.55018,-0.54712 z" />
      <path
         id="path870"
         style="font-style:normal;font-variant:normal;font-weight:600;font-stretch:normal;font-size:15.1978px;font-family:Montserrat;-inkscape-font-specification:'Montserrat Semi-Bold';fill:#404040;fill-opacity:1;stroke-width:0.316623"
         d="m 234.53929,225.8616 q 1.53498,0 2.46204,0.89667 0.92707,0.89667 0.92707,2.65961 v 4.65053 h -1.89973 v -4.40736 q 0,-1.06385 -0.50152,-1.59577 -0.50153,-0.54712 -1.4286,-0.54712 -1.04864,0 -1.65656,0.6383 -0.60791,0.62311 -0.60791,1.80854 v 4.10341 h -1.89972 v -8.11563 h 1.80853 v 1.04865 q 0.47114,-0.56232 1.18543,-0.85108 0.7143,-0.28875 1.61097,-0.28875 z" />
      <path
         id="path872"
         style="font-style:normal;font-variant:normal;font-weight:600;font-stretch:normal;font-size:15.1978px;font-family:Montserrat;-inkscape-font-specification:'Montserrat Semi-Bold';fill:#404040;fill-opacity:1;stroke-width:0.316623"
         d="m 244.0863,234.17479 q -1.26142,0 -2.26448,-0.53192 -1.00305,-0.53192 -1.56537,-1.47419 -0.56232,-0.95746 -0.56232,-2.15808 0,-1.20063 0.56232,-2.14289 0.56232,-0.94227 1.55018,-1.47419 1.00305,-0.53192 2.27967,-0.53192 1.20062,0 2.09729,0.48633 0.91187,0.48633 1.3678,1.39819 l -1.45898,0.85108 q -0.34955,-0.56232 -0.88148,-0.83588 -0.51672,-0.28876 -1.13983,-0.28876 -1.06385,0 -1.76295,0.6991 -0.6991,0.6839 -0.6991,1.83894 0,1.15503 0.68391,1.85413 0.69909,0.6839 1.77814,0.6839 0.62311,0 1.13983,-0.27356 0.53193,-0.28876 0.88148,-0.85108 l 1.45898,0.85108 q -0.47113,0.91187 -1.383,1.41339 -0.89667,0.48633 -2.08209,0.48633 z" />
      <path
         id="path874"
         style="font-style:normal;font-variant:normal;font-weight:600;font-stretch:normal;font-size:15.1978px;font-family:Montserrat;-inkscape-font-specification:'Montserrat Semi-Bold';fill:#404040;fill-opacity:1;stroke-width:0.316623"
         d="m 256.60993,230.05619 q 0,0.19757 -0.0304,0.56232 h -6.36788 q 0.16717,0.89667 0.86627,1.42859 0.7143,0.51673 1.76295,0.51673 1.3374,0 2.20368,-0.88148 l 1.01825,1.17023 q -0.54712,0.65351 -1.383,0.98786 -0.83588,0.33435 -1.88453,0.33435 -1.3374,0 -2.35565,-0.53192 -1.01826,-0.53192 -1.58058,-1.47419 -0.54712,-0.95746 -0.54712,-2.15808 0,-1.18543 0.53193,-2.1277 0.54712,-0.95746 1.50458,-1.48938 0.95746,-0.53192 2.15809,-0.53192 1.18542,0 2.11249,0.53192 0.94226,0.51672 1.45899,1.47419 0.53192,0.94226 0.53192,2.18848 z m -4.1034,-2.67481 q -0.91187,0 -1.55018,0.54712 -0.62311,0.53192 -0.75989,1.42859 h 4.60493 q -0.12158,-0.88147 -0.74469,-1.42859 -0.62311,-0.54712 -1.55017,-0.54712 z" />
      <path
         id="path876"
         style="font-style:normal;font-variant:normal;font-weight:600;font-stretch:normal;font-size:15.1978px;font-family:Montserrat;-inkscape-font-specification:'Montserrat Semi-Bold';fill:#404040;fill-opacity:1;stroke-width:0.316623"
         d="m 262.62885,223.42995 h 1.97571 v 8.9667 h 5.5624 v 1.67176 h -7.53811 z" />
      <path
         id="path878"
         style="font-style:normal;font-variant:normal;font-weight:600;font-stretch:normal;font-size:15.1978px;font-family:Montserrat;-inkscape-font-specification:'Montserrat Semi-Bold';fill:#404040;fill-opacity:1;stroke-width:0.316623"
         d="m 274.66925,225.8616 q 1.79334,0 2.7356,0.86627 0.95746,0.85108 0.95746,2.58363 v 4.75691 h -1.79334 v -0.98786 q -0.34955,0.53192 -1.00305,0.82068 -0.63831,0.27356 -1.55018,0.27356 -0.91187,0 -1.59577,-0.30395 -0.6839,-0.31916 -1.06384,-0.86628 -0.36475,-0.56232 -0.36475,-1.26142 0,-1.09424 0.80548,-1.74774 0.82069,-0.66871 2.56843,-0.66871 h 2.0973 v -0.12158 q 0,-0.85107 -0.51673,-1.30701 -0.50152,-0.45593 -1.50458,-0.45593 -0.6839,0 -1.3526,0.21277 -0.65351,0.21277 -1.10944,0.59271 l -0.74469,-1.383 q 0.6383,-0.48633 1.53497,-0.74469 0.89667,-0.25836 1.89973,-0.25836 z m -0.25836,6.93019 q 0.71429,0 1.26141,-0.31915 0.56232,-0.33435 0.79029,-0.94226 v -0.94227 h -1.96052 q -1.64136,0 -1.64136,1.07905 0,0.51672 0.41034,0.82068 0.41034,0.30395 1.13984,0.30395 z" />
      <path
         id="path880"
         style="font-style:normal;font-variant:normal;font-weight:600;font-stretch:normal;font-size:15.1978px;font-family:Montserrat;-inkscape-font-specification:'Montserrat Semi-Bold';fill:#404040;fill-opacity:1;stroke-width:0.316623"
         d="m 285.21955,225.8616 q 1.18542,0 2.11249,0.51672 0.94226,0.51673 1.47419,1.45899 0.53192,0.94226 0.53192,2.17329 0,1.23102 -0.53192,2.18848 -0.53193,0.94226 -1.47419,1.45899 -0.92707,0.51672 -2.11249,0.51672 -0.83588,0 -1.53498,-0.28876 -0.6839,-0.28875 -1.15504,-0.86627 v 1.04865 H 280.721 v -11.27677 h 1.89972 v 4.149 q 0.48633,-0.53192 1.13984,-0.80548 0.6687,-0.27356 1.45899,-0.27356 z m -0.21277,6.68703 q 1.04864,0 1.71735,-0.6991 0.6839,-0.6991 0.6839,-1.83893 0,-1.13984 -0.6839,-1.83894 -0.66871,-0.6991 -1.71735,-0.6991 -0.6839,0 -1.23103,0.31916 -0.54712,0.30395 -0.86627,0.88147 -0.31915,0.57752 -0.31915,1.33741 0,0.75989 0.31915,1.3374 0.31915,0.57752 0.86627,0.89667 0.54713,0.30396 1.23103,0.30396 z" />
    </g>
  </g>
</svg>
