<svg xmlns="http://www.w3.org/2000/svg" viewBox="0 0 178.8 56" height="56mm" width="675.78"><path d="M231.45 207.649a9.883 9.883 0 0 1-1.413-.172c-1.176-.233-2.156-.682-2.976-1.363a7.48 7.48 0 0 1-.679-.68c-.916-1.098-1.433-2.529-1.563-4.323-.029-.399-.032-.914-.033-4.795v-4.046h3.666l.004 4.186c.004 4.569-.001 4.235.062 4.685.21 1.494.958 2.514 2.15 2.927.254.088.511.146.83.188.217.028.879.029 1.106 0 .667-.083 1.187-.27 1.639-.59.723-.512 1.182-1.35 1.341-2.452.057-.392.053-.074.057-4.682l.004-4.262h3.665v4.052c0 4.044-.003 4.319-.038 4.779-.14 1.801-.688 3.268-1.626 4.357-.164.19-.473.495-.654.645-1.12.93-2.562 1.438-4.38 1.542-.17.01-1.004.013-1.161.004zm-35.111-.021c-.181-.012-.492-.04-.631-.059a6.653 6.653 0 0 1-3.93-1.935 8.816 8.816 0 0 1-.332-.35l-.126-.144.036-.039c.02-.02.53-.589 1.134-1.262l1.115-1.243c.018-.02.03-.008.309.27.389.39.607.574.942.795.564.373 1.102.552 1.72.574.965.033 1.662-.347 2.028-1.104.15-.311.237-.653.292-1.146.017-.155.019-.513.022-4.94l.004-4.775h3.752l-.004 4.947c-.003 3.704-.006 4.98-.016 5.086a8.1 8.1 0 0 1-.223 1.38c-.228.884-.614 1.619-1.181 2.254-.218.244-.54.521-.84.722-.804.538-1.733.84-2.912.95-.178.016-.987.03-1.159.019zm9.062-2.004v-1.806h4.162c2.288 0 4.161-.004 4.161-.01 0-.004-1.872-1.611-4.161-3.57l-4.161-3.564v-2.197c-.001-1.208 0-2.196.004-2.196s7.502 6.418 8.31 7.112c.015.013.478-.38 4.161-3.535 2.28-1.953 4.153-3.557 4.164-3.565.017-.014.018.11.018 2.183v2.198l-4.16 3.562c-2.287 1.96-4.16 3.567-4.162 3.572-.003.005 1.822.009 4.16.009h4.162v3.612h-16.658z" style="fill:#bfbfbf;fill-opacity:1;stroke-width:.0107817" transform="translate(-105.59 -189.27)"/><path d="M147.404 192.27c-7.582.014-14.784 2.024-21.604 6.033-6.844 4.022-12.29 9.346-16.342 15.973-.578 1.012-.868 2.01-.868 2.994 0 .984.29 1.982.868 2.995 4.051 6.627 9.498 11.95 16.342 15.973 6.82 4.008 14.022 6.02 21.604 6.032v-5.555c-6.742-.013-13.003-1.77-18.783-5.273-5.802-3.516-10.627-8.24-14.475-14.172 4.398-6.828 9.91-11.936 16.536-15.321-1.765 3.01-2.647 6.265-2.647 9.766 0 5.353 1.902 9.932 5.707 13.737 3.788 3.787 8.697 6.378 13.662 6.394zm-6.065 8.091h.01a2.083 2.083 0 0 1 1.027 3.896c-.444.312-.87.671-1.277 1.077-1.765 1.766-2.647 3.892-2.647 6.38a2.01 2.01 0 0 1-.608 1.477 2.01 2.01 0 0 1-1.476.607 2.01 2.01 0 0 1-1.475-.607 2.01 2.01 0 0 1-.608-1.476c0-3.617 1.295-6.72 3.885-9.31a14.302 14.302 0 0 1 1.871-1.582c.368-.297.826-.46 1.298-.462z" style="fill:#bfbfbf;fill-opacity:1;stroke-width:.0434033" transform="translate(-105.59 -189.27)"/><path style="fill:#007dad;fill-opacity:1;stroke-width:.303198;stroke-linecap:round;stroke-linejoin:round" d="M149.524 223.543h27.209v8.303h-27.209z" transform="translate(-105.59 -189.27)"/><path d="M149.524 233.967h14.044v8.303h-14.044z" style="fill:#f15a4e;fill-opacity:1;stroke-width:.217828;stroke-linecap:round;stroke-linejoin:round" transform="translate(-105.59 -189.27)"/><path d="M149.524 192.27h7.22v8.304h-7.22z" style="fill:#ae619d;fill-opacity:1;stroke-width:.156188;stroke-linecap:round;stroke-linejoin:round" transform="translate(-105.59 -189.27)"/><path style="fill:#b2d349;fill-opacity:1;stroke-width:.26984;stroke-linecap:round;stroke-linejoin:round" d="M149.524 202.694h21.551v8.304h-21.55Z" transform="translate(-105.59 -189.27)"/><path d="M149.524 213.119h33.866v8.303h-33.866Z" style="fill:#fdb812;fill-opacity:1;stroke-width:.338262;stroke-linecap:round;stroke-linejoin:round" transform="translate(-105.59 -189.27)"/><g style="font-style:normal;font-variant:normal;font-weight:600;font-stretch:normal;font-size:15.1978px;line-height:1.05;font-family:Montserrat;-inkscape-font-specification:'Montserrat Semi-Bold';letter-spacing:-.079375px;fill:#404040;fill-opacity:1;stroke:none;stroke-width:.316623" aria-label="Visual Data Science Lab"><path style="font-style:normal;font-variant:normal;font-weight:600;font-stretch:normal;font-size:15.1978px;font-family:Montserrat;-inkscape-font-specification:'Montserrat Semi-Bold';fill:#404040;fill-opacity:1;stroke-width:.316623" d="m207.955 207.472-4.636 10.639h-1.945l-4.65-10.639h2.142l3.541 8.207 3.572-8.207zM208.89 209.995h1.9v8.116h-1.9zm.957-1.337q-.517 0-.866-.32-.35-.334-.35-.82 0-.486.35-.806.35-.334.866-.334.517 0 .866.32.35.303.35.774 0 .502-.35.851-.334.335-.866.335zM215.711 218.217q-.988 0-1.93-.258-.942-.259-1.505-.654l.73-1.444q.547.365 1.307.593.775.213 1.52.213 1.702 0 1.702-.897 0-.425-.441-.592-.426-.168-1.383-.32-1.003-.152-1.641-.35-.623-.197-1.095-.683-.456-.502-.456-1.383 0-1.155.958-1.839.973-.7 2.614-.7.836 0 1.672.198.836.183 1.368.502l-.73 1.444q-1.033-.608-2.325-.608-.836 0-1.277.258-.425.243-.425.654 0 .456.456.653.47.183 1.443.35.973.152 1.596.35.623.197 1.064.668.456.471.456 1.337 0 1.14-.988 1.824-.988.684-2.69.684zM228.818 209.995v8.116h-1.809v-1.034q-.456.547-1.14.851-.684.29-1.474.29-1.626 0-2.568-.898-.927-.911-.927-2.69v-4.635h1.9v4.377q0 1.094.486 1.641.501.532 1.413.532 1.018 0 1.611-.623.608-.638.608-1.824v-4.103zM234.34 209.904q1.794 0 2.736.866.958.851.958 2.584v4.757h-1.794v-.988q-.35.532-1.003.82-.638.274-1.55.274t-1.596-.304q-.683-.319-1.063-.866-.365-.562-.365-1.262 0-1.094.805-1.747.821-.669 2.569-.669h2.097v-.122q0-.85-.517-1.307-.501-.456-1.504-.456-.684 0-1.353.213-.653.213-1.11.593l-.744-1.383q.638-.486 1.535-.745.897-.258 1.9-.258zm-.258 6.93q.715 0 1.262-.319.562-.334.79-.942v-.943h-1.96q-1.642 0-1.642 1.08 0 .516.41.82.41.304 1.14.304zM240.393 206.834h1.9v11.277h-1.9zM248.995 207.472h4.65q1.702 0 3.024.669 1.323.653 2.052 1.87.73 1.2.73 2.78 0 1.581-.73 2.797-.73 1.2-2.052 1.87-1.322.653-3.024.653h-4.65zm4.559 8.967q1.17 0 2.052-.44.896-.457 1.367-1.277.487-.836.487-1.93 0-1.095-.487-1.915-.47-.836-1.367-1.277-.882-.456-2.052-.456h-2.584v7.295zM264.39 209.904q1.793 0 2.735.866.957.851.957 2.584v4.757h-1.793v-.988q-.35.532-1.003.82-.638.274-1.55.274t-1.596-.304q-.684-.319-1.064-.866-.365-.562-.365-1.262 0-1.094.806-1.747.82-.669 2.568-.669h2.098v-.122q0-.85-.517-1.307-.502-.456-1.505-.456-.684 0-1.352.213-.654.213-1.11.593l-.745-1.383q.639-.486 1.535-.745.897-.258 1.9-.258zm-.26 6.93q.715 0 1.262-.319.563-.334.79-.942v-.943h-1.96q-1.641 0-1.641 1.08 0 .516.41.82.41.304 1.14.304zM275.32 217.67q-.335.274-.821.41-.471.137-1.003.137-1.338 0-2.067-.699-.73-.7-.73-2.037v-3.905h-1.337v-1.52h1.337v-1.854h1.9v1.854h2.173v1.52H272.6v3.86q0 .593.289.912.289.304.836.304.638 0 1.064-.335zM279.903 209.904q1.794 0 2.736.866.957.851.957 2.584v4.757h-1.793v-.988q-.35.532-1.003.82-.638.274-1.55.274t-1.596-.304q-.684-.319-1.064-.866-.365-.562-.365-1.262 0-1.094.806-1.747.82-.669 2.568-.669h2.098v-.122q0-.85-.517-1.307-.502-.456-1.505-.456-.684 0-1.352.213-.654.213-1.11.593l-.745-1.383q.639-.486 1.535-.745.897-.258 1.9-.258zm-.258 6.93q.714 0 1.261-.319.563-.334.79-.942v-.943h-1.96q-1.641 0-1.641 1.08 0 .516.41.82.41.304 1.14.304zM201.526 234.22q-1.231 0-2.386-.35-1.14-.349-1.809-.926l.684-1.535q.654.517 1.596.85.957.32 1.915.32 1.185 0 1.763-.38.593-.38.593-1.003 0-.456-.335-.745-.319-.304-.82-.47-.502-.168-1.368-.38-1.216-.29-1.976-.578-.745-.289-1.292-.897-.532-.623-.532-1.672 0-.881.471-1.595.487-.73 1.444-1.155.973-.426 2.371-.426.973 0 1.915.243.942.243 1.626.7l-.623 1.534q-.7-.41-1.459-.623-.76-.213-1.474-.213-1.17 0-1.748.395-.562.396-.562 1.05 0 .455.319.744.334.289.836.456.501.167 1.368.38 1.185.273 1.945.577.76.289 1.292.897.547.608.547 1.641 0 .882-.486 1.596-.472.714-1.444 1.14-.973.425-2.371.425zM211.248 234.175q-1.262 0-2.265-.532-1.003-.532-1.565-1.474-.563-.958-.563-2.158 0-1.201.563-2.143.562-.943 1.55-1.474 1.003-.532 2.28-.532 1.2 0 2.097.486.912.486 1.368 1.398l-1.46.851q-.349-.562-.88-.836-.517-.288-1.14-.288-1.064 0-1.763.699-.7.684-.7 1.839 0 1.155.684 1.854.7.684 1.778.684.624 0 1.14-.274.532-.289.882-.851l1.459.851q-.471.912-1.383 1.413-.897.487-2.082.487zM216.26 225.953h1.9v8.115h-1.9zm.958-1.338q-.517 0-.866-.319-.35-.334-.35-.82 0-.487.35-.806.35-.334.866-.334.517 0 .866.319.35.304.35.775 0 .501-.35.851-.334.334-.866.334zM228.204 230.056q0 .198-.03.563h-6.369q.168.896.867 1.428.714.517 1.763.517 1.337 0 2.203-.882l1.019 1.17q-.547.654-1.383.988-.836.335-1.885.335-1.337 0-2.356-.532-1.018-.532-1.58-1.474-.547-.958-.547-2.158 0-1.186.532-2.128.547-.958 1.504-1.49.958-.531 2.158-.531 1.186 0 2.113.532.942.516 1.459 1.474.532.942.532 2.188zm-4.104-2.675q-.912 0-1.55.547-.623.532-.76 1.43h4.605q-.121-.882-.744-1.43-.624-.547-1.55-.547zM234.54 225.862q1.534 0 2.461.896.927.897.927 2.66v4.65h-1.9v-4.407q0-1.064-.5-1.596-.502-.547-1.43-.547-1.048 0-1.656.638-.608.624-.608 1.809v4.103h-1.9v-8.115h1.809V227q.471-.562 1.185-.85.715-.29 1.611-.29zM244.086 234.175q-1.261 0-2.264-.532t-1.566-1.474q-.562-.958-.562-2.158 0-1.201.562-2.143.563-.943 1.55-1.474 1.004-.532 2.28-.532 1.2 0 2.098.486.911.486 1.367 1.398l-1.459.851q-.35-.562-.881-.836-.517-.288-1.14-.288-1.064 0-1.763.699-.699.684-.699 1.839 0 1.155.684 1.854.7.684 1.778.684.623 0 1.14-.274.532-.289.881-.851l1.46.851q-.472.912-1.384 1.413-.896.487-2.082.487zM256.61 230.056q0 .198-.03.563h-6.368q.167.896.866 1.428.714.517 1.763.517 1.337 0 2.204-.882l1.018 1.17q-.547.654-1.383.988-.836.335-1.885.335-1.337 0-2.355-.532-1.019-.532-1.581-1.474-.547-.958-.547-2.158 0-1.186.532-2.128.547-.958 1.504-1.49.958-.531 2.159-.531 1.185 0 2.112.532.942.516 1.459 1.474.532.942.532 2.188zm-4.103-2.675q-.912 0-1.55.547-.624.532-.76 1.43h4.604q-.121-.882-.744-1.43-.623-.547-1.55-.547zM262.629 223.43h1.976v8.967h5.562v1.671h-7.538zM274.67 225.862q1.793 0 2.735.866.957.85.957 2.583v4.757h-1.793v-.987q-.35.531-1.003.82-.638.274-1.55.274t-1.596-.304q-.684-.32-1.064-.866-.365-.563-.365-1.262 0-1.094.806-1.748.82-.668 2.568-.668h2.098v-.122q0-.851-.517-1.307-.502-.456-1.505-.456-.684 0-1.352.213-.654.213-1.11.593l-.744-1.383q.638-.487 1.535-.745.896-.258 1.9-.258zm-.26 6.93q.715 0 1.262-.32.563-.334.79-.942v-.942h-1.96q-1.641 0-1.641 1.08 0 .516.41.82.41.304 1.14.304zM285.22 225.862q1.185 0 2.112.516.942.517 1.474 1.46.532.942.532 2.173 0 1.23-.532 2.188-.532.942-1.474 1.46-.927.516-2.112.516-.836 0-1.535-.289-.684-.289-1.155-.866v1.048h-1.809v-11.276h1.9v4.149q.486-.532 1.14-.806.668-.273 1.459-.273zm-.213 6.687q1.048 0 1.717-.7.684-.699.684-1.838 0-1.14-.684-1.84-.669-.698-1.717-.698-.684 0-1.231.319-.547.304-.867.881-.319.578-.319 1.338 0 .76.32 1.337.319.578.866.897.547.304 1.23.304z" transform="matrix(.97253 0 0 1.02825 -105.59 -189.27)"/></g></svg>